HIERARCHY
ROOT Root
{
  OFFSET 0.0 0.0 0.0
  CHANNELS 6 Xposition Yposition Zposition Zrotation Yrotation Xrotation
  JOINT Hips
  {
    OFFSET 0.0 100.0 0.0
    CHANNELS 6 Xposition Yposition Zposition Zrotation Yrotation Xrotation
    JOINT Spine1
    {
      OFFSET 5.003913 -0.037094 -0.013727
      CHANNELS 3 Zrotation Yrotation Xrotation
      JOINT Spine2
      {
        OFFSET 7.125363 -1e-06 0.0
        CHANNELS 3 Zrotation Yrotation Xrotation
        JOINT Chest
        {
          OFFSET 7.594027 1e-06 0.0
          CHANNELS 3 Zrotation Yrotation Xrotation
          JOINT Neck1
          {
            OFFSET 26.313086 -0.460272 -0.181672
            CHANNELS 3 Zrotation Yrotation Xrotation
            JOINT Neck2
            {
              OFFSET 8.045911 0.0 0.0
              CHANNELS 3 Zrotation Yrotation Xrotation
              JOINT Head
              {
                OFFSET 6.432774 0.0 0.0
                CHANNELS 3 Zrotation Yrotation Xrotation
                JOINT HeadEnd
                {
                  OFFSET 16.169773 0.06451 0.00362
                  CHANNELS 3 Zrotation Yrotation Xrotation
                }
                JOINT Jaw
                {
                  OFFSET 0.108741 3.12938 0.002639
                  CHANNELS 3 Zrotation Yrotation Xrotation
                }
                JOINT LeftEye
                {
                  OFFSET 4.45173 8.166359 3.206392
                  CHANNELS 3 Zrotation Yrotation Xrotation
                }
                JOINT RightEye
                {
                  OFFSET 4.436895 8.135758 -3.222429
                  CHANNELS 3 Zrotation Yrotation Xrotation
                }
              }
            }
          }
          JOINT LeftShoulder
          {
            OFFSET 23.218927 5.195579 1.621656
            CHANNELS 3 Zrotation Yrotation Xrotation
            JOINT LeftArm
            {
              OFFSET 15.902118 2e-06 -2e-06
              CHANNELS 3 Zrotation Yrotation Xrotation
              JOINT LeftForeArm
              {
                OFFSET 28.739307 0.0 -1e-06
                CHANNELS 3 Zrotation Yrotation Xrotation
                JOINT LeftHand
                {
                  OFFSET 27.093981 -4e-06 0.0
                  CHANNELS 3 Zrotation Yrotation Xrotation
                  JOINT LeftHandThumb1
                  {
                    OFFSET 2.276781 3.380274 0.83384
                    CHANNELS 3 Zrotation Yrotation Xrotation
                    JOINT LeftHandThumb2
                    {
                      OFFSET 4.705309 -1e-06 -1e-06
                      CHANNELS 3 Zrotation Yrotation Xrotation
                      JOINT LeftHandThumb3
                      {
                        OFFSET 2.798515 0.0 3e-06
                        CHANNELS 3 Zrotation Yrotation Xrotation
                        JOINT LeftHandThumbEnd
                        {
                          OFFSET 3.180793 4e-06 -4e-06
                          CHANNELS 3 Zrotation Yrotation Xrotation
                        }
                      }
                    }
                  }
                  JOINT LeftHandIndex1
                  {
                    OFFSET 3.247786 2.352677 0.137192
                    CHANNELS 3 Zrotation Yrotation Xrotation
                    JOINT LeftHandIndex2
                    {
                      OFFSET 6.367095 1e-06 0.0
                      CHANNELS 3 Zrotation Yrotation Xrotation
                      JOINT LeftHandIndex3
                      {
                        OFFSET 3.662364 0.0 0.0
                        CHANNELS 3 Zrotation Yrotation Xrotation
                        JOINT LeftHandIndex4
                        {
                          OFFSET 2.329242 4e-06 -4e-06
                          CHANNELS 3 Zrotation Yrotation Xrotation
                          JOINT LeftHandIndexEnd
                          {
                            OFFSET 2.767823 1e-06 0.0
                            CHANNELS 3 Zrotation Yrotation Xrotation
                          }
                        }
                      }
                    }
                  }
                  JOINT LeftHandMiddle1
                  {
                    OFFSET 3.163612 0.945023 -0.406112
                    CHANNELS 3 Zrotation Yrotation Xrotation
                    JOINT LeftHandMiddle2
                    {
                      OFFSET 6.276789 3e-06 0.0
                      CHANNELS 3 Zrotation Yrotation Xrotation
                      JOINT LeftHandMiddle3
                      {
                        OFFSET 4.35652 -1e-06 4e-06
                        CHANNELS 3 Zrotation Yrotation Xrotation
                        JOINT LeftHandMiddle4
                        {
                          OFFSET 2.996877 0.0 8e-06
                          CHANNELS 3 Zrotation Yrotation Xrotation
                          JOINT LeftHandMiddleEnd
                          {
                            OFFSET 2.323256 3e-06 -4e-06
                            CHANNELS 3 Zrotation Yrotation Xrotation
                          }
                        }
                      }
                    }
                  }
                  JOINT LeftHandRing1
                  {
                    OFFSET 2.882606 -0.309162 0.107445
                    CHANNELS 3 Zrotation Yrotation Xrotation
                    JOINT LeftHandRing2
                    {
                      OFFSET 6.033198 0.0 4e-06
                      CHANNELS 3 Zrotation Yrotation Xrotation
                      JOINT LeftHandRing3
                      {
                        OFFSET 4.350578 3e-06 0.0
                        CHANNELS 3 Zrotation Yrotation Xrotation
                        JOINT LeftHandRing4
                        {
                          OFFSET 2.651321 2e-06 -7e-06
                          CHANNELS 3 Zrotation Yrotation Xrotation
                          JOINT LeftHandRingEnd
                          {
                            OFFSET 1.937663 1e-06 -4e-06
                            CHANNELS 3 Zrotation Yrotation Xrotation
                          }
                        }
                      }
                    }
                  }
                  JOINT LeftHandPinky1
                  {
                    OFFSET 2.865315 -1.525436 0.575687
                    CHANNELS 3 Zrotation Yrotation Xrotation
                    JOINT LeftHandPinky2
                    {
                      OFFSET 5.54936 1e-06 -8e-06
                      CHANNELS 3 Zrotation Yrotation Xrotation
                      JOINT LeftHandPinky3
                      {
                        OFFSET 3.070974 0.0 -4e-06
                        CHANNELS 3 Zrotation Yrotation Xrotation
                        JOINT LeftHandPinky4
                        {
                          OFFSET 1.549672 1e-06 0.0
                          CHANNELS 3 Zrotation Yrotation Xrotation
                          JOINT LeftHandPinkyEnd
                          {
                            OFFSET 1.952123 0.0 0.0
                            CHANNELS 3 Zrotation Yrotation Xrotation
                          }
                        }
                      }
                    }
                  }
                }
              }
            }
          }
          JOINT RightShoulder
          {
            OFFSET 23.161716 5.296122 -1.380114
            CHANNELS 3 Zrotation Yrotation Xrotation
            JOINT RightArm
            {
              OFFSET -16.027195 -2e-06 1.1e-05
              CHANNELS 3 Zrotation Yrotation Xrotation
              JOINT RightForeArm
              {
                OFFSET -28.736639 4e-06 2e-06
                CHANNELS 3 Zrotation Yrotation Xrotation
                JOINT RightHand
                {
                  OFFSET -27.133619 6e-06 0.0
                  CHANNELS 3 Zrotation Yrotation Xrotation
                  JOINT RightHandThumb1
                  {
                    OFFSET -2.274328 -3.351035 -0.83067
                    CHANNELS 3 Zrotation Yrotation Xrotation
                    JOINT RightHandThumb2
                    {
                      OFFSET -4.703594 -3e-06 2e-06
                      CHANNELS 3 Zrotation Yrotation Xrotation
                      JOINT RightHandThumb3
                      {
                        OFFSET -2.794935 -4e-06 -3e-06
                        CHANNELS 3 Zrotation Yrotation Xrotation
                        JOINT RightHandThumbEnd
                        {
                          OFFSET -3.183852 4e-06 1e-06
                          CHANNELS 3 Zrotation Yrotation Xrotation
                        }
                      }
                    }
                  }
                  JOINT RightHandIndex1
                  {
                    OFFSET -3.253496 -2.33755 -0.127667
                    CHANNELS 3 Zrotation Yrotation Xrotation
                    JOINT RightHandIndex2
                    {
                      OFFSET -6.344434 0.0 0.0
                      CHANNELS 3 Zrotation Yrotation Xrotation
                      JOINT RightHandIndex3
                      {
                        OFFSET -3.654871 0.0 -8e-06
                        CHANNELS 3 Zrotation Yrotation Xrotation
                        JOINT RightHandIndex4
                        {
                          OFFSET -2.327586 -1e-06 0.0
                          CHANNELS 3 Zrotation Yrotation Xrotation
                          JOINT RightHandIndexEnd
                          {
                            OFFSET -2.770001 3e-06 8e-06
                            CHANNELS 3 Zrotation Yrotation Xrotation
                          }
                        }
                      }
                    }
                  }
                  JOINT RightHandMiddle1
                  {
                    OFFSET -3.168223 -0.944764 0.411762
                    CHANNELS 3 Zrotation Yrotation Xrotation
                    JOINT RightHandMiddle2
                    {
                      OFFSET -6.266691 -1e-06 -4e-06
                      CHANNELS 3 Zrotation Yrotation Xrotation
                      JOINT RightHandMiddle3
                      {
                        OFFSET -4.348901 0.0 0.0
                        CHANNELS 3 Zrotation Yrotation Xrotation
                        JOINT RightHandMiddle4
                        {
                          OFFSET -3.00024 2e-06 -4e-06
                          CHANNELS 3 Zrotation Yrotation Xrotation
                          JOINT RightHandMiddleEnd
                          {
                            OFFSET -2.321477 -4e-06 -4e-06
                            CHANNELS 3 Zrotation Yrotation Xrotation
                          }
                        }
                      }
                    }
                  }
                  JOINT RightHandRing1
                  {
                    OFFSET -2.885654 0.293261 -0.119232
                    CHANNELS 3 Zrotation Yrotation Xrotation
                    JOINT RightHandRing2
                    {
                      OFFSET -6.032835 -1e-06 -4e-06
                      CHANNELS 3 Zrotation Yrotation Xrotation
                      JOINT RightHandRing3
                      {
                        OFFSET -4.33881 0.0 -4e-06
                        CHANNELS 3 Zrotation Yrotation Xrotation
                        JOINT RightHandRing4
                        {
                          OFFSET -2.654903 -4e-06 -4e-06
                          CHANNELS 3 Zrotation Yrotation Xrotation
                          JOINT RightHandRingEnd
                          {
                            OFFSET -1.935122 0.0 4e-06
                            CHANNELS 3 Zrotation Yrotation Xrotation
                          }
                        }
                      }
                    }
                  }
                  JOINT RightHandPinky1
                  {
                    OFFSET -2.866241 1.503904 -0.60527
                    CHANNELS 3 Zrotation Yrotation Xrotation
                    JOINT RightHandPinky2
                    {
                      OFFSET -5.553177 -2e-06 0.0
                      CHANNELS 3 Zrotation Yrotation Xrotation
                      JOINT RightHandPinky3
                      {
                        OFFSET -3.062664 -1e-06 -4e-06
                        CHANNELS 3 Zrotation Yrotation Xrotation
                        JOINT RightHandPinky4
                        {
                          OFFSET -1.546529 2e-06 4e-06
                          CHANNELS 3 Zrotation Yrotation Xrotation
                          JOINT RightHandPinkyEnd
                          {
                            OFFSET -1.952341 0.0 -4e-06
                            CHANNELS 3 Zrotation Yrotation Xrotation
                          }
                        }
                      }
                    }
                  }
                }
              }
            }
          }
        }
      }
    }
    JOINT LeftLeg
    {
      OFFSET -8.443107 2.567604 10.043214
      CHANNELS 3 Zrotation Yrotation Xrotation
      JOINT LeftShin
      {
        OFFSET 43.229198 1e-06 -1e-06
        CHANNELS 3 Zrotation Yrotation Xrotation
        JOINT LeftFoot
        {
          OFFSET 42.298611 1e-06 1e-06
          CHANNELS 3 Zrotation Yrotation Xrotation
          JOINT LeftToeBase
          {
            OFFSET 14.165858 1e-06 0.0
            CHANNELS 3 Zrotation Yrotation Xrotation
            JOINT LeftToeEnd
            {
              OFFSET 6.7141 -0.234461 0.0
              CHANNELS 3 Zrotation Yrotation Xrotation
            }
          }
        }
      }
    }
    JOINT RightLeg
    {
      OFFSET -8.303923 2.592729 -10.047278
      CHANNELS 3 Zrotation Yrotation Xrotation
      JOINT RightShin
      {
        OFFSET -43.369682 0.0 1e-06
        CHANNELS 3 Zrotation Yrotation Xrotation
        JOINT RightFoot
        {
          OFFSET -42.260784 4e-06 2e-06
          CHANNELS 3 Zrotation Yrotation Xrotation
          JOINT RightToeBase
          {
            OFFSET -14.222245 -2e-06 -1e-06
            CHANNELS 3 Zrotation Yrotation Xrotation
            JOINT RightToeEnd
            {
              OFFSET -6.660062 0.232574 -2e-06
              CHANNELS 3 Zrotation Yrotation Xrotation
            }
          }
        }
      }
    }
  }
}
MOTION
Frames: 4
Frame Time: 0.03333333333333333
0.0 0.0 0.0 0.0 -0.0 0.0 2.241761 81.225853 0.261827 94.965172 -5.962391 89.458427 11.371674 -0.854759 -0.01339 -5.241255 0.117199 1.903393 25.777689 1.157825 1.428366 16.220036 -0.944281 3.25957 -2.424949 -1.358036 -6.173411 -47.209095 -2.676708 -6.997741 6e-06 0.0 -0.0 0.126969 0.004266 0.116689 0.144526 -0.023171 0.120881 0.114405 0.020391 0.106951 -78.21154 -81.052994 91.574875 61.810856 -55.64809 -48.899738 124.924583 -1.15631 0.228818 15.709823 9.992885 38.191387 17.636627 -26.322729 52.411186 -19.466656 -14.3956 29.410389 0.0 -8.774822 -1e-06 15.532812 -18.142529 6.663074 -0.609778 -1.795654 -3.889327 -4.80709 -11.04681 -2.937852 2e-06 -20.976015 0.0 -5.019975 -25.033556 -4.03188 7e-06 1e-06 1e-06 -10.634535 -5.68697 -3.565585 10.573274 -17.922949 -3.113898 -1e-06 -13.821206 2e-06 -0.501779 -31.181498 -4.027017 -11.75564 -59.369041 7.81115 -13.982715 -7.150198 -2.87504 13.772729 -8.40149 -3.218243 0.347729 -34.211555 0.771655 -0.96303 -17.73337 2.621019 -1e-06 1e-06 1e-06 -17.346422 -20.095219 -4.20178 21.757561 -1.63837 3.866424 1e-06 -6.338824 1e-06 -1.697595 -22.591747 -6.194005 -1e-06 -3e-06 -2e-06 -92.230415 -82.767082 -77.712845 56.749157 -36.698421 -63.820393 122.606255 1.725866 -0.18455 10.917182 -0.205624 34.325916 22.182108 -20.375887 49.933319 -16.701811 -16.743528 28.476532 -4e-06 -12.690598 -0.0 16.193634 -17.786287 2.71013 -0.10592 -1.513854 -4.275883 -5.039039 -5.612871 -2.953553 7e-06 -11.02052 -4e-06 -6.111295 -15.895328 -3.840474 -0.0 -0.0 -0.0 -10.283365 -5.680284 -4.341839 11.028295 -11.302404 -2.372633 -1.384267 -14.238579 -6.320123 -0.625435 -26.924189 -3.827603 -4.983517 -50.224648 -3.184959 -13.708519 -7.363472 -3.720942 18.141146 -14.05274 -3.242674 1e-05 -18.78727 -5e-06 -0.429712 -8.456042 2.555503 1e-06 0.0 -1e-06 -15.923532 -20.094482 -5.473587 30.419205 -7.190827 1.735925 5e-06 -8.162927 -2e-06 -1.861899 -22.861467 -6.167941 -0.0 -3e-06 -0.0 124.996086 5.317044 -10.131845 74.085716 0.175772 -0.410162 -95.256104 -6.270179 2.167338 -6.612777 1.567709 2.022991 -0.999999 -0.0 -0.0 -30.92585 -16.71958 -0.166775 93.371735 -0.557893 0.251259 -82.416473 14.169924 -0.465216 -21.106524 0.813871 1.396185 -1.000005 0.0 0.0 
0.0 0.0 0.0 0.0 -0.0 0.0 2.700242 81.537727 1.636783 94.680176 -5.79186 89.358421 11.549516 -0.675692 -0.084635 -5.179165 0.227391 1.871636 25.808683 1.214404 1.483524 16.041054 -0.951183 3.249985 -2.441658 -1.39039 -6.227034 -47.158058 -2.556912 -6.94023 6e-06 -0.0 -0.0 0.106685 -0.006283 0.18594 0.114527 -0.028573 0.183596 0.08307 0.004945 0.180358 -78.533134 -81.111794 91.772079 61.583179 -55.474167 -49.315048 125.381058 -1.375946 0.241256 15.492218 9.974485 38.218327 17.63662 -26.322716 52.411179 -19.466665 -14.395597 29.410381 -1e-06 -8.774822 0.0 15.560527 -18.094519 6.577658 -0.609777 -1.795653 -3.889327 -4.80709 -11.046808 -2.93785 4e-06 -20.976013 -1e-06 -5.019969 -25.033556 -4.031881 6e-06 1e-06 -1e-06 -10.634531 -5.686969 -3.565586 10.573271 -17.922947 -3.1139 2e-06 -13.821205 -2e-06 -0.501776 -31.181498 -4.027015 -11.559146 -59.27594 7.667477 -13.982712 -7.150196 -2.87504 13.772727 -8.401489 -3.218242 0.347734 -34.211536 0.771649 -0.96303 -17.733366 2.621019 0.0 2e-06 1e-06 -17.346418 -20.095215 -4.201785 21.757557 -1.638373 3.866427 2e-06 -6.338823 1e-06 -1.697587 -22.59174 -6.194008 -1e-06 -5e-06 -1e-06 -93.471832 -82.508812 -76.803566 56.836021 -36.51775 -63.993538 121.82917 1.6761 -0.131855 10.848989 -0.259116 34.172359 22.182108 -20.375889 49.933327 -16.701813 -16.743528 28.47653 -2e-06 -12.6906 -0.0 16.222164 -17.666803 2.70014 -0.10592 -1.513858 -4.27588 -5.039042 -5.61287 -2.953557 6e-06 -11.020523 -4e-06 -6.111298 -15.89533 -3.840476 0.0 -1e-06 -1e-06 -10.283369 -5.680288 -4.341837 11.02829 -11.302404 -2.372632 -1.384272 -14.238577 -6.320122 -0.62544 -26.924181 -3.827604 -4.716306 -50.092667 -3.236558 -13.708522 -7.363478 -3.720937 18.141146 -14.052733 -3.242675 7e-06 -18.787266 -6e-06 -0.429713 -8.45604 2.555502 2e-06 -2e-06 -1e-06 -15.923534 -20.094482 -5.473584 30.41921 -7.190823 1.735925 3e-06 -8.162927 -1e-06 -1.861903 -22.861467 -6.167942 1e-06 -3e-06 -0.0 126.39769 5.358501 -10.162569 74.054527 0.214083 -0.45762 -96.520172 -6.336326 2.295381 -6.567935 1.589018 2.032176 -0.999998 -0.0 -0.0 -34.462418 -16.58173 1.129411 97.016388 -0.496974 0.19842 -82.294304 12.71951 -0.630495 -14.766218 0.680953 1.37444 -1.000004 0.0 -0.0 
0.0 0.0 0.0 0.0 -0.0 0.0 3.083801 81.84446 2.977845 94.280632 -5.790135 89.274681 11.690815 -0.483554 -0.143841 -5.146186 0.333652 1.808076 25.887524 1.367627 1.552675 15.764661 -0.925466 3.22703 -2.460082 -1.370455 -6.250537 -47.088947 -2.519308 -6.746883 6e-06 -0.0 -0.0 0.099926 -0.009701 0.225945 0.094725 -0.030392 0.223496 0.067976 -0.000146 0.219513 -78.806625 -81.250595 91.85759 60.937489 -55.170734 -49.486427 125.879173 -1.486628 0.27125 15.166342 9.890064 38.049652 17.636627 -26.322741 52.411213 -19.466665 -14.395598 29.410395 -2e-06 -8.774821 -1e-06 15.610459 -18.091148 6.491137 -0.609776 -1.795654 -3.889329 -4.807087 -11.046809 -2.937849 8e-06 -20.976019 1e-06 -5.019967 -25.033556 -4.03188 7e-06 -1e-06 -1e-06 -10.634535 -5.68697 -3.565586 10.573277 -17.922955 -3.113901 3e-06 -13.821211 2e-06 -0.501779 -31.181505 -4.027013 -11.511699 -59.35358 7.682633 -13.982716 -7.150195 -2.875044 13.772733 -8.401493 -3.218243 0.347733 -34.211555 0.771657 -0.96303 -17.73337 2.621023 -1e-06 1e-06 -0.0 -17.346416 -20.095217 -4.201784 21.757561 -1.638377 3.866428 1e-06 -6.338825 2e-06 -1.69759 -22.591743 -6.194005 -0.0 -6e-06 -1e-06 -94.440727 -82.260666 -76.234505 56.684021 -36.108158 -64.176247 120.975067 1.521964 -0.050862 10.987362 -0.401158 33.976406 22.182106 -20.375904 49.933323 -16.701811 -16.743528 28.476532 -2e-06 -12.690601 -0.0 16.298964 -17.58531 2.66699 -0.105921 -1.513857 -4.275882 -5.03904 -5.61287 -2.953554 5e-06 -11.020523 -1e-06 -6.111296 -15.895334 -3.84047 1e-06 -1e-06 -0.0 -10.283369 -5.680286 -4.341837 11.028289 -11.302406 -2.372631 -1.384268 -14.23858 -6.32012 -0.625439 -26.924187 -3.827599 -4.610648 -49.910839 -3.256848 -13.708522 -7.363475 -3.720937 18.141146 -14.05274 -3.242672 6e-06 -18.787266 -2e-06 -0.429712 -8.456043 2.555503 0.0 -1e-06 -1e-06 -15.92353 -20.094482 -5.473583 30.419207 -7.190825 1.735925 3e-06 -8.162929 -1e-06 -1.861903 -22.861467 -6.167938 1e-06 -4e-06 -0.0 127.600052 5.233646 -10.086982 74.016464 0.267664 -0.473591 -97.721123 -6.40056 2.303578 -6.468125 1.590931 2.034463 -0.999999 -0.0 0.0 -38.855366 -15.984683 2.089323 98.731163 -0.524767 0.241297 -84.75563 10.903082 -1.142705 -11.79603 0.608949 1.395616 -1.000006 -0.0 -0.0 
0.0 0.0 0.0 0.0 -0.0 0.0 3.351452 82.168266 4.138675 93.735352 -5.946044 89.100533 11.807905 -0.228814 -0.185494 -5.065684 0.42641 1.811447 25.978813 1.61946 1.625883 15.367489 -0.955873 3.1524 -2.477337 -1.335872 -6.126282 -47.045467 -2.493965 -6.529244 6e-06 -0.0 0.0 0.091998 -0.007856 0.227014 0.096014 -0.03069 0.230329 0.07463 0.004163 0.213544 -79.1511 -81.44239 92.079559 60.099613 -54.61245 -49.569885 126.30397 -1.516363 0.275438 14.961442 9.678736 38.177681 17.636635 -26.322744 52.411209 -19.46666 -14.395598 29.410389 -0.0 -8.774822 -3e-06 15.712929 -18.089418 6.349796 -0.609777 -1.795653 -3.889328 -4.807092 -11.046813 -2.937848 2e-06 -20.976021 2e-06 -5.019972 -25.033562 -4.031881 6e-06 2e-06 -0.0 -10.634537 -5.686973 -3.565587 10.573274 -17.922953 -3.113899 -0.0 -13.821212 2e-06 -0.501782 -31.181507 -4.027013 -11.557283 -59.538418 7.742274 -13.982718 -7.1502 -2.875041 13.772731 -8.401493 -3.218243 0.34773 -34.211555 0.771656 -0.96303 -17.733372 2.621023 -1e-06 1e-06 0.0 -17.346422 -20.095222 -4.201779 21.757561 -1.638374 3.86643 2e-06 -6.338825 2e-06 -1.69759 -22.591751 -6.19401 -2e-06 -4e-06 -0.0 -94.705048 -82.014313 -76.300232 56.308037 -35.469971 -64.427437 120.221237 1.306519 -0.034763 11.300667 -0.683689 33.520054 22.182123 -20.375895 49.933315 -16.701811 -16.743525 28.476522 -1e-06 -12.6906 -3e-06 16.402126 -17.55302 2.582596 -0.105921 -1.513858 -4.275882 -5.039044 -5.612873 -2.953556 7e-06 -11.020523 -3e-06 -6.111297 -15.895334 -3.84047 1e-06 -2e-06 -1e-06 -10.283373 -5.68029 -4.341839 11.028293 -11.302407 -2.37263 -1.384269 -14.238581 -6.320122 -0.62544 -26.924191 -3.827599 -4.55985 -49.856895 -3.335743 -13.708527 -7.363476 -3.72094 18.14115 -14.05274 -3.242673 7e-06 -18.787271 -4e-06 -0.429713 -8.456044 2.555502 2e-06 -1e-06 -0.0 -15.923536 -20.094484 -5.473584 30.41921 -7.190826 1.735932 3e-06 -8.16293 -1e-06 -1.8619 -22.861467 -6.167946 1e-06 -3e-06 -0.0 128.530304 4.815977 -9.924966 73.921249 0.310864 -0.458252 -98.711288 -6.372808 2.084822 -6.393314 1.584685 2.034593 -0.999998 -0.0 -0.0 -43.830498 -15.048107 2.530368 97.348534 -0.555025 0.344837 -87.232361 8.542037 -1.289465 -11.074689 0.558495 1.42206 -1.000006 0.0 -0.0 
